<mxfile host="app.diagrams.net" modified="2023-04-03T13:09:15.905Z" agent="Mozilla/5.0 (Macintosh; Intel Mac OS X 10.15; rv:109.0) Gecko/20100101 Firefox/111.0" etag="HoyZobvQsLtQw0rsSiAp" version="21.1.4" type="google">
  <diagram name="Pagina-1" id="empKTaTjzDWwGEfh-u5i">
    <mxGraphModel grid="1" page="1" gridSize="10" guides="1" tooltips="1" connect="1" arrows="1" fold="1" pageScale="1" pageWidth="827" pageHeight="1169" math="0" shadow="0">
      <root>
        <mxCell id="0" />
        <mxCell id="1" parent="0" />
        <mxCell id="16W25pCmoKW-utqna45M-5" style="edgeStyle=orthogonalEdgeStyle;rounded=0;orthogonalLoop=1;jettySize=auto;html=1;entryX=0.5;entryY=0;entryDx=0;entryDy=0;" edge="1" parent="1" source="16W25pCmoKW-utqna45M-1" target="16W25pCmoKW-utqna45M-4">
          <mxGeometry relative="1" as="geometry" />
        </mxCell>
        <mxCell id="16W25pCmoKW-utqna45M-1" value="START" style="ellipse;whiteSpace=wrap;html=1;" vertex="1" parent="1">
          <mxGeometry x="354" y="10" width="120" height="50" as="geometry" />
        </mxCell>
        <mxCell id="16W25pCmoKW-utqna45M-9" value="" style="edgeStyle=orthogonalEdgeStyle;rounded=0;orthogonalLoop=1;jettySize=auto;html=1;" edge="1" parent="1" source="16W25pCmoKW-utqna45M-2" target="16W25pCmoKW-utqna45M-3">
          <mxGeometry relative="1" as="geometry" />
        </mxCell>
        <mxCell id="16W25pCmoKW-utqna45M-2" value="NUMERO PRECEDENTE = 0" style="shape=parallelogram;perimeter=parallelogramPerimeter;whiteSpace=wrap;html=1;fixedSize=1;" vertex="1" parent="1">
          <mxGeometry x="322" y="220" width="178" height="20" as="geometry" />
        </mxCell>
        <mxCell id="16W25pCmoKW-utqna45M-14" style="edgeStyle=orthogonalEdgeStyle;rounded=0;orthogonalLoop=1;jettySize=auto;html=1;" edge="1" parent="1" source="16W25pCmoKW-utqna45M-3" target="16W25pCmoKW-utqna45M-10">
          <mxGeometry relative="1" as="geometry" />
        </mxCell>
        <mxCell id="16W25pCmoKW-utqna45M-3" value="NUMERO ATTUALE = 1" style="shape=parallelogram;perimeter=parallelogramPerimeter;whiteSpace=wrap;html=1;fixedSize=1;" vertex="1" parent="1">
          <mxGeometry x="336" y="270" width="184" height="30" as="geometry" />
        </mxCell>
        <mxCell id="16W25pCmoKW-utqna45M-7" style="edgeStyle=orthogonalEdgeStyle;rounded=0;orthogonalLoop=1;jettySize=auto;html=1;" edge="1" parent="1" source="16W25pCmoKW-utqna45M-4" target="16W25pCmoKW-utqna45M-6">
          <mxGeometry relative="1" as="geometry" />
        </mxCell>
        <mxCell id="16W25pCmoKW-utqna45M-4" value="SOMMA = 0" style="rounded=0;whiteSpace=wrap;html=1;" vertex="1" parent="1">
          <mxGeometry x="356" y="80" width="116" height="40" as="geometry" />
        </mxCell>
        <mxCell id="16W25pCmoKW-utqna45M-8" style="edgeStyle=orthogonalEdgeStyle;rounded=0;orthogonalLoop=1;jettySize=auto;html=1;" edge="1" parent="1" source="16W25pCmoKW-utqna45M-6" target="16W25pCmoKW-utqna45M-2">
          <mxGeometry relative="1" as="geometry" />
        </mxCell>
        <mxCell id="16W25pCmoKW-utqna45M-6" value="SOMMA" style="shape=parallelogram;perimeter=parallelogramPerimeter;whiteSpace=wrap;html=1;fixedSize=1;" vertex="1" parent="1">
          <mxGeometry x="356" y="140" width="120" height="60" as="geometry" />
        </mxCell>
        <mxCell id="16W25pCmoKW-utqna45M-15" value="V" style="edgeStyle=orthogonalEdgeStyle;rounded=0;orthogonalLoop=1;jettySize=auto;html=1;" edge="1" parent="1" source="16W25pCmoKW-utqna45M-10" target="16W25pCmoKW-utqna45M-11">
          <mxGeometry relative="1" as="geometry" />
        </mxCell>
        <mxCell id="16W25pCmoKW-utqna45M-10" value="SOMMA &amp;lt;21" style="rhombus;whiteSpace=wrap;html=1;" vertex="1" parent="1">
          <mxGeometry x="354" y="330" width="110" height="80" as="geometry" />
        </mxCell>
        <mxCell id="16W25pCmoKW-utqna45M-16" style="edgeStyle=orthogonalEdgeStyle;rounded=0;orthogonalLoop=1;jettySize=auto;html=1;" edge="1" parent="1" source="16W25pCmoKW-utqna45M-11" target="16W25pCmoKW-utqna45M-12">
          <mxGeometry relative="1" as="geometry" />
        </mxCell>
        <mxCell id="16W25pCmoKW-utqna45M-11" value="SOMMA = NUMERO PRECEDENTE + NUMERO ATTUALE" style="rounded=0;whiteSpace=wrap;html=1;" vertex="1" parent="1">
          <mxGeometry x="344" y="470" width="120" height="60" as="geometry" />
        </mxCell>
        <mxCell id="16W25pCmoKW-utqna45M-17" style="edgeStyle=orthogonalEdgeStyle;rounded=0;orthogonalLoop=1;jettySize=auto;html=1;" edge="1" parent="1" source="16W25pCmoKW-utqna45M-12" target="16W25pCmoKW-utqna45M-13">
          <mxGeometry relative="1" as="geometry" />
        </mxCell>
        <mxCell id="16W25pCmoKW-utqna45M-12" value="NUMERO PRECEDENTE = NUMERO ATTUALE" style="rounded=0;whiteSpace=wrap;html=1;" vertex="1" parent="1">
          <mxGeometry x="349" y="555" width="120" height="60" as="geometry" />
        </mxCell>
        <mxCell id="16W25pCmoKW-utqna45M-13" value="NUMERO ATTUALE = SOMMA" style="rounded=0;whiteSpace=wrap;html=1;" vertex="1" parent="1">
          <mxGeometry x="344" y="640" width="120" height="60" as="geometry" />
        </mxCell>
        <mxCell id="16W25pCmoKW-utqna45M-18" value="" style="endArrow=classic;html=1;rounded=0;exitX=0.5;exitY=1;exitDx=0;exitDy=0;" edge="1" parent="1" source="16W25pCmoKW-utqna45M-13" target="16W25pCmoKW-utqna45M-10">
          <mxGeometry width="50" height="50" relative="1" as="geometry">
            <mxPoint x="390" y="570" as="sourcePoint" />
            <mxPoint x="260" y="320" as="targetPoint" />
            <Array as="points">
              <mxPoint x="409" y="730" />
              <mxPoint x="250" y="720" />
              <mxPoint x="250" y="370" />
            </Array>
          </mxGeometry>
        </mxCell>
        <mxCell id="16W25pCmoKW-utqna45M-19" value="SOMMA" style="shape=parallelogram;perimeter=parallelogramPerimeter;whiteSpace=wrap;html=1;fixedSize=1;" vertex="1" parent="1">
          <mxGeometry x="349" y="420" width="120" height="40" as="geometry" />
        </mxCell>
        <mxCell id="16W25pCmoKW-utqna45M-20" value="F" style="endArrow=classic;html=1;rounded=0;exitX=1;exitY=0.5;exitDx=0;exitDy=0;" edge="1" parent="1" source="16W25pCmoKW-utqna45M-10" target="16W25pCmoKW-utqna45M-21">
          <mxGeometry width="50" height="50" relative="1" as="geometry">
            <mxPoint x="290" y="530" as="sourcePoint" />
            <mxPoint x="610" y="370" as="targetPoint" />
          </mxGeometry>
        </mxCell>
        <mxCell id="16W25pCmoKW-utqna45M-21" value="END" style="ellipse;whiteSpace=wrap;html=1;" vertex="1" parent="1">
          <mxGeometry x="550" y="330" width="120" height="80" as="geometry" />
        </mxCell>
      </root>
    </mxGraphModel>
  </diagram>
</mxfile>
